<?xml version="1.0" standalone="no"?>
<!DOCTYPE svg PUBLIC "-//W3C//DTD SVG 20010904//EN"
 "http://www.w3.org/TR/2001/REC-SVG-20010904/DTD/svg10.dtd">
<svg version="1.0" xmlns="http://www.w3.org/2000/svg"
 width="1410.000000pt" height="1410.000000pt" viewBox="0 0 1410.000000 1410.000000"
 preserveAspectRatio="xMidYMid meet">
<metadata>
Created by potrace 1.11, written by Peter Selinger 2001-2013
</metadata>
<g transform="translate(0.000000,1410.000000) scale(0.100000,-0.100000)"
fill="#000000" stroke="none">
<path d="M6748 14095 c-1 -1 -57 -6 -123 -9 -66 -4 -140 -9 -165 -11 -25 -2
-73 -7 -107 -10 -85 -8 -294 -34 -403 -51 -224 -34 -610 -118 -815 -177 -327
-94 -671 -219 -923 -334 -41 -18 -75 -33 -77 -33 -24 0 -545 -270 -635 -329
-46 -30 -65 -41 -80 -48 -66 -30 -411 -262 -598 -402 -435 -325 -896 -767
-1222 -1169 -19 -24 -43 -54 -53 -65 -85 -99 -363 -490 -464 -652 -163 -261
-334 -576 -430 -790 -25 -55 -51 -113 -59 -130 -34 -69 -169 -416 -220 -567
-69 -204 -173 -571 -198 -703 -3 -11 -14 -63 -25 -115 -11 -52 -23 -111 -26
-130 -3 -19 -8 -42 -10 -50 -6 -18 -61 -391 -70 -470 -3 -30 -8 -80 -11 -110
-3 -30 -7 -72 -9 -93 -31 -272 -25 -986 10 -1302 3 -22 7 -62 10 -90 3 -27 8
-70 11 -95 4 -25 8 -55 9 -67 2 -13 6 -42 10 -65 4 -24 8 -54 10 -68 8 -52 25
-156 31 -185 25 -137 50 -250 80 -374 42 -174 39 -162 59 -231 9 -30 23 -80
31 -110 50 -187 227 -670 310 -848 19 -40 34 -77 34 -82 0 -6 4 -10 10 -10 5
0 165 65 356 145 191 80 350 145 354 145 4 0 14 -28 24 -62 59 -214 201 -471
347 -629 98 -106 247 -192 399 -230 91 -23 278 -31 395 -17 128 15 266 66 365
134 77 53 88 63 152 143 157 195 266 563 314 1056 3 33 8 1538 10 3345 2 1807
3 3300 4 3318 l0 32 565 0 565 0 -3 -3382 c-1 -1861 -6 -3414 -10 -3453 -13
-136 -33 -301 -42 -355 -142 -847 -483 -1401 -1031 -1674 -314 -157 -618 -217
-1069 -212 -266 3 -384 16 -565 62 -52 13 -98 24 -103 24 -26 0 270 -319 528
-568 216 -208 631 -548 818 -669 23 -15 44 -30 47 -33 8 -8 167 -113 270 -177
223 -141 572 -327 822 -439 57 -25 117 -52 133 -59 174 -79 561 -216 800 -285
255 -73 669 -166 825 -186 14 -1 39 -5 55 -8 17 -3 48 -8 70 -11 22 -4 51 -8
65 -10 14 -3 56 -7 95 -11 38 -4 73 -8 76 -10 3 -1 45 -6 95 -9 49 -4 103 -9
119 -11 187 -24 838 -24 1140 1 249 20 581 66 765 105 25 6 60 12 77 15 53 9
268 60 463 111 173 45 495 152 701 234 593 237 1113 526 1629 908 401 297 826
694 1151 1077 19 22 36 42 39 45 3 3 24 29 48 57 l43 53 -430 0 -431 0 0 3670
c0 3489 -1 3670 -17 3670 -15 0 -38 -75 -141 -458 -101 -376 -164 -611 -299
-1107 -3 -11 -75 -279 -160 -595 -85 -316 -269 -1000 -409 -1520 -141 -520
-292 -1080 -336 -1245 -44 -165 -91 -338 -104 -385 -13 -47 -41 -152 -63 -235
-22 -82 -71 -267 -110 -410 -139 -513 -300 -1106 -347 -1283 l-27 -102 -510 2
-510 3 -8 25 c-4 14 -21 79 -38 145 -17 66 -38 143 -46 170 -8 28 -111 415
-229 860 -118 446 -222 837 -231 870 -9 33 -24 92 -35 130 -47 180 -311 1174
-320 1205 -6 19 -39 145 -75 280 -35 135 -71 270 -80 300 -8 30 -71 264 -139
520 -68 256 -185 695 -259 975 -75 281 -151 564 -168 630 -17 66 -47 176 -65
245 -156 586 -208 780 -232 872 -21 86 -31 108 -44 108 -17 0 -18 -181 -18
-3670 l0 -3670 -523 0 -522 0 0 4433 0 4432 830 0 830 0 73 -270 c40 -148 83
-310 96 -360 13 -49 61 -227 106 -395 46 -168 95 -352 111 -410 15 -58 34
-130 42 -160 19 -72 239 -886 363 -1345 53 -198 100 -373 104 -390 4 -16 44
-167 89 -335 132 -489 170 -633 181 -670 9 -31 167 -618 248 -925 16 -60 64
-238 107 -395 42 -157 78 -292 80 -300 2 -8 53 -199 114 -425 61 -225 126
-465 143 -532 29 -110 35 -123 55 -123 25 0 23 -6 103 300 28 107 62 236 75
285 13 50 58 221 99 380 42 160 81 306 86 325 9 32 34 125 104 390 236 899
504 1916 616 2340 77 294 152 576 165 625 13 50 40 153 60 230 20 77 54 205
75 285 21 80 52 197 69 260 27 105 52 200 96 365 9 33 18 69 21 80 2 11 24 97
49 190 25 94 65 244 89 335 24 91 72 274 107 408 l64 242 722 0 c398 0 723 2
723 5 0 6 -18 27 -154 183 -130 149 -110 128 -272 293 -205 209 -323 317 -550
507 -220 183 -553 422 -768 552 -32 19 -72 44 -89 55 -51 33 -194 115 -292
167 -150 80 -497 248 -513 248 -4 0 -20 7 -37 16 -30 16 -234 97 -380 152 -75
28 -244 84 -398 131 -145 46 -500 132 -682 166 -157 29 -268 47 -380 60 -33 4
-62 9 -65 10 -3 2 -44 7 -90 10 -47 4 -87 8 -90 10 -3 2 -54 6 -114 10 -59 4
-120 9 -134 11 -31 5 -749 14 -754 9z"/>
<path d="M12800 11015 c-2 -1004 0 -8028 2 -8031 5 -5 194 275 257 381 105
176 161 273 204 355 58 111 197 389 197 395 0 2 13 32 29 67 43 91 122 285
170 418 23 63 51 138 61 165 10 28 42 126 70 218 123 410 211 826 255 1202 3
28 8 64 10 80 2 17 7 64 11 105 3 41 8 91 9 110 25 262 25 916 0 1140 -2 19
-6 64 -9 100 -10 119 -54 451 -70 530 -5 26 -10 50 -21 115 -15 89 -56 277
-85 390 -17 66 -33 129 -35 140 -3 11 -16 58 -31 105 -14 47 -29 99 -34 115
-8 33 -114 349 -129 387 -5 13 -26 66 -47 118 -112 288 -311 706 -433 912 -54
90 -87 146 -97 163 -41 74 -249 390 -276 420 -4 5 -8 -40 -8 -100z"/>
</g>
</svg>
